#!OML:ASF X:\für Bonn\!DataBase\2005_08_12_Daniel\c3d\Daniel.ASF
:FULLY-SPECIFIED
:DEGREES
16
root 14.7963 16.5794 0.42009 -734.342 -69.6794 728.139
lowerback 9.41603 -6.73698 -5.60236
upperback 3.75942 -9.62035 -3.19746
thorax -0.949347 -4.88091 0.715571
lowerneck 5.58209 2.54453 -3.44489
upperneck 7.60214 2.97373 1.72052
head 1.34679 1.33071 1.09044
rclavicle 8.89561e-014 -1.35174e-014
rhumerus -52.041 -14.2612 -73.3854
rradius 17.1326
rwrist 29.0428
rhand -21.6476 10.055
rfingers 7.12502
rthumb 4.74903 -19.8717
lclavicle 8.89561e-014 -1.35174e-014
lhumerus -28.8183 15.6913 76.7339
lradius 103.213
lwrist 194.365
lhand -11.729 12.8088
lfingers 7.12502
lthumb 14.3181 42.2951
rfemur -35.2112 -8.91214 7.22249
rtibia 45.5247
rfoot -19.0232 -4.46512
rtoes -8.95945
lfemur 10.6931 -13.622 -27.3415
ltibia 35.8172
lfoot -38.6391 -0.916116
ltoes -14.1077
17
root 14.6608 16.5556 0.413663 -734.704 -69.7861 728.501
lowerback 9.31152 -6.88713 -5.79846
upperback 3.82803 -9.82589 -3.18893
thorax -0.775914 -4.99175 0.820865
lowerneck 5.46987 2.71164 -3.36494
upperneck 7.71363 3.20757 1.57482
head 1.39794 1.44574 1.03241
rclavicle -4.6615e-014 -1.74931e-014
rhumerus -52.5285 -14.3538 -72.9515
rradius 17.1277
rwrist 28.853
rhand -21.7333 9.76239
rfingers 7.12502
rthumb 4.66627 -20.1662
lclavicle -4.6615e-014 -1.74931e-014
lhumerus -28.1082 15.7684 76.8048
lradius 103.403
lwrist 194.513
lhand -11.561 12.8356
lfingers 7.12502
lthumb 14.48 42.3103
rfemur -35.3468 -7.30249 6.52449
rtibia 43.8359
rfoot -19.1248 -5.94957
rtoes -8.94852
lfemur 11.5688 -13.5355 -27.39
ltibia 35.1852
lfoot -38.7544 -0.856967
ltoes -14.2054
18
root 14.5219 16.5301 0.405669 -735.056 -69.8492 728.851
lowerback 9.19268 -7.06073 -6.02051
upperback 3.90225 -10.0624 -3.17206
thorax -0.579551 -5.11945 0.945587
lowerneck 5.37842 2.89081 -3.32061
upperneck 7.7911 3.4548 1.45449
head 1.43422 1.5671 0.987931
rclavicle 1.05853e-014 -3.57812e-014
rhumerus -52.9856 -14.437 -72.5086
rradius 17.1086
rwrist 28.7012
rhand -21.8421 9.4797
rfingers 7.12502
rthumb 4.56124 -20.4512
lclavicle 1.05853e-014 -3.57812e-014
lhumerus -27.4621 15.951 76.9136
lradius 103.62
lwrist 194.646
lhand -11.4393 12.9107
lfingers 7.12502
lthumb 14.5973 42.377
rfemur -35.4413 -5.5451 5.72983
rtibia 42.1919
rfoot -19.4694 -7.501
rtoes -8.00503
lfemur 12.4307 -13.4279 -27.4062
ltibia 34.5702
lfoot -38.864 -0.840396
ltoes -14.3721
19
root 14.3789 16.5055 0.395816 -735.439 -69.8225 729.282
lowerback 9.01685 -7.26 -6.30427
upperback 3.9582 -10.3327 -3.1526
thorax -0.35555 -5.26527 1.0976
lowerneck 5.33312 3.07225 -3.28255
upperneck 7.85459 3.70387 1.30817
head 1.45915 1.68847 0.93561
rclavicle 3.18552e-014 -2.46493e-014
rhumerus -53.4121 -14.5588 -72.0094
rradius 17.0088
rwrist 28.5466
rhand -21.9433 9.20899
rfingers 7.12502
rthumb 4.46353 -20.724
lclavicle 3.18552e-014 -2.46493e-014
lhumerus -26.859 16.2 77.1045
lradius 103.862
lwrist 194.74
lhand -11.3214 12.9935
lfingers 7.12502
lthumb 14.7109 42.4516
rfemur -35.5593 -3.69513 4.80097
rtibia 40.6466
rfoot -20.1266 -9.09357
rtoes -7.39959
lfemur 13.246 -13.3546 -27.4235
ltibia 33.9582
lfoot -38.9502 -0.900313
ltoes -14.5841
20
root 14.2334 16.4812 0.386118 -735.85 -69.7583 729.734
lowerback 8.83135 -7.47262 -6.59004
upperback 4.02657 -10.6193 -3.15725
thorax -0.113619 -5.42065 1.22122
lowerneck 5.29595 3.25444 -3.19587
upperneck 7.89592 3.95652 1.15501
head 1.4771 1.81321 0.872804
rclavicle -4.14963e-014 1.59028e-014
rhumerus -53.823 -14.7256 -71.5123
rradius 16.883
rwrist 28.521
rhand -22.0406 8.93661
rfingers 7.12502
rthumb 4.36961 -20.9983
lclavicle -4.14963e-014 1.59028e-014
lhumerus -26.3103 16.4634 77.301
lradius 104.123
lwrist 194.777
lhand -11.2444 13.1285
lfingers 7.12502
lthumb 14.785 42.5811
rfemur -35.6852 -1.70443 3.76335
rtibia 39.2475
rfoot -21.1131 -10.7253
rtoes -7.46546
lfemur 14.0809 -13.2937 -27.446
ltibia 33.3286
lfoot -39.0043 -1.02032
ltoes -14.6886
21
root 14.0851 16.4544 0.37436 -736.36 -69.6778 730.326
lowerback 8.62521 -7.68942 -6.96403
upperback 4.0638 -10.9153 -3.13948
thorax 0.131719 -5.58167 1.4084
lowerneck 5.2734 3.44635 -3.16305
upperneck 7.92932 4.21941 1.00019
head 1.48962 1.94142 0.818268
rclavicle -1.05704e-013 -8.74653e-015
rhumerus -54.2317 -14.7025 -71.1324
rradius 16.8432
rwrist 28.3032
rhand -22.0865 8.71044
rfingers 7.12502
rthumb 4.32522 -21.2254
lclavicle -1.05704e-013 -8.74653e-015
lhumerus -25.851 16.7427 77.5286
lradius 104.454
lwrist 194.851
lhand -11.1741 13.147
lfingers 7.12502
lthumb 14.8528 42.5947
rfemur -35.9152 0.248446 2.64255
rtibia 38.0386
rfoot -22.3166 -12.2528
rtoes -8.20875
lfemur 14.8912 -13.2223 -27.4953
ltibia 32.6848
lfoot -39.0227 -1.1411
ltoes -14.787
22
root 13.9351 16.4271 0.362554 -736.877 -69.5609 730.928
lowerback 8.42261 -7.91772 -7.32029
upperback 4.09108 -11.2251 -3.15284
thorax 0.360062 -5.74897 1.55316
lowerneck 5.26554 3.62994 -3.05598
upperneck 7.96234 4.47476 0.816107
head 1.50242 2.06733 0.742283
rclavicle -5.15349e-014 -1.74931e-014
rhumerus -54.6794 -14.7426 -70.7414
rradius 16.8386
rwrist 28.1472
rhand -22.0308 8.5647
rfingers 7.12502
rthumb 4.37905 -21.37
lclavicle -5.15349e-014 -1.74931e-014
lhumerus -25.4396 16.9816 77.7355
lradius 104.803
lwrist 194.925
lhand -11.1297 13.1842
lfingers 7.12502
lthumb 14.8956 42.6286
rfemur -36.2104 2.06074 1.5138
rtibia 37.0281
rfoot -23.6361 -13.6693
rtoes -9.67983
lfemur 15.7057 -13.1816 -27.5536
ltibia 32.0291
lfoot -38.9966 -1.30156
ltoes -14.8909
